<?xml version="1.0" standalone="no"?>
<!DOCTYPE svg PUBLIC "-//W3C//DTD SVG 20010904//EN"
 "http://www.w3.org/TR/2001/REC-SVG-20010904/DTD/svg10.dtd">
<svg version="1.0" xmlns="http://www.w3.org/2000/svg"
 width="512.000000pt" height="512.000000pt" viewBox="0 0 512.000000 512.000000"
 preserveAspectRatio="xMidYMid meet">

<g transform="translate(0.000000,512.000000) scale(0.100000,-0.100000)"
fill="#000000" stroke="none">
<path d="M3517 4640 c-81 -31 -192 -127 -545 -468 l-223 -215 -29 22 c-46 33
-72 27 -123 -29 -41 -46 -47 -49 -81 -43 -35 5 -39 3 -111 -73 -53 -57 -74
-87 -75 -106 0 -15 5 -30 11 -34 7 -4 1 -16 -16 -34 -22 -23 -33 -27 -64 -23
-36 5 -40 2 -109 -75 -70 -78 -89 -120 -61 -137 7 -5 2 -16 -12 -31 -18 -20
-29 -23 -60 -18 -37 6 -40 4 -106 -66 -84 -89 -86 -93 -71 -125 10 -22 9 -29
-10 -47 -18 -18 -25 -20 -45 -11 -19 9 -31 8 -52 -3 -33 -17 -42 -9 -77 66
-24 51 -27 127 -13 350 6 102 4 137 -9 190 -44 173 -162 312 -288 335 -26 5
-49 1 -81 -13 -64 -29 -95 -95 -108 -233 -33 -362 -85 -635 -160 -849 -49
-137 -58 -202 -69 -455 -5 -132 -12 -276 -16 -321 l-6 -81 -224 -224 c-142
-142 -224 -231 -224 -244 0 -25 1145 -1173 1179 -1182 20 -5 53 24 240 211
l216 216 95 15 c124 18 176 30 283 62 l88 26 32 -39 c66 -81 119 -133 154
-149 52 -25 139 -17 190 17 l40 26 61 -30 c120 -59 256 -35 344 61 24 26 48
55 53 65 9 16 15 17 50 7 92 -25 196 -4 273 57 45 36 90 114 100 174 l7 43 65
11 c84 14 115 27 166 70 61 49 98 130 99 214 0 36 -3 77 -7 91 -7 24 -4 27 49
43 76 24 152 100 179 176 39 115 15 226 -66 314 -33 35 -39 48 -32 63 15 30
22 86 14 122 -7 33 -5 37 96 135 63 61 114 120 129 149 49 98 40 202 -25 278
-41 48 -84 69 -141 69 -58 0 -76 -9 -217 -111 -71 -51 -135 -92 -142 -93 -14
-1 -40 30 -32 37 3 2 84 68 180 147 357 293 435 365 459 419 34 81 26 145 -31
228 -52 77 -151 116 -235 94 -27 -7 -159 -96 -382 -256 -188 -135 -345 -245
-350 -245 -4 0 -16 8 -25 19 -16 18 -16 20 10 40 41 32 380 338 541 488 165
155 195 201 195 304 0 120 -82 225 -186 236 -96 11 -108 4 -547 -349 -318
-255 -414 -328 -429 -323 -11 4 -20 12 -20 18 0 7 45 57 101 112 213 211 511
529 530 567 50 98 30 218 -49 297 -72 71 -151 88 -245 51z m160 -105 c52 -34
73 -138 40 -201 -17 -33 -603 -644 -618 -644 -5 0 -67 47 -139 104 l-129 105
207 198 c232 221 388 364 444 407 73 55 141 66 195 31z m540 -399 c33 -30 37
-39 40 -92 5 -79 -11 -104 -167 -250 -189 -176 -550 -499 -559 -499 -4 0 -60
50 -124 110 l-117 110 391 315 c215 173 403 320 417 327 47 21 80 15 119 -21z
m-2821 -198 c43 -34 61 -57 95 -121 49 -96 63 -166 53 -282 -4 -55 -8 -149 -8
-210 -1 -100 1 -115 27 -170 15 -32 39 -73 52 -91 24 -31 24 -32 5 -49 -27
-24 -33 -50 -20 -75 16 -29 -13 -64 -41 -50 -35 20 -57 9 -127 -64 -74 -76
-79 -85 -62 -115 13 -26 -23 -60 -44 -42 -22 19 -44 7 -118 -62 -51 -47 -68
-70 -68 -90 0 -14 5 -29 11 -32 6 -5 -3 -20 -25 -40 -60 -55 -53 -71 72 -161
281 -205 589 -470 857 -739 167 -167 425 -449 425 -465 0 -15 -190 -60 -340
-80 l-85 -11 -203 -202 -202 -202 -532 533 -533 532 208 208 208 208 9 67 c6
36 14 187 20 334 10 284 19 345 68 479 65 178 117 434 147 724 24 234 25 237
46 264 26 33 66 34 105 4z m1417 -156 c458 -356 906 -803 1296 -1291 107 -135
145 -200 127 -218 -3 -3 -28 15 -56 41 -71 67 -128 91 -215 90 -118 -1 -217
-62 -269 -167 -28 -54 -35 -141 -17 -203 9 -31 8 -31 -44 -48 -99 -31 -179
-127 -200 -238 -7 -36 -9 -38 -44 -38 -74 0 -139 -28 -195 -83 -29 -29 -59
-62 -67 -75 -13 -21 -17 -22 -44 -12 -52 21 -154 16 -208 -10 -110 -52 -177
-160 -177 -283 0 -97 26 -142 163 -284 40 -41 40 -43 22 -58 -23 -17 -78 -19
-105 -5 -11 6 -77 79 -147 163 -371 443 -733 799 -1154 1133 -69 55 -155 122
-193 148 l-67 49 37 38 c35 36 37 42 27 69 -9 24 -8 32 6 44 11 10 21 12 31 6
30 -19 54 -8 121 57 53 51 69 73 69 94 0 15 -5 31 -11 34 -7 5 -4 14 7 26 13
15 25 17 56 12 38 -6 42 -4 109 63 69 68 85 104 59 130 -7 7 -2 18 15 34 20
19 27 21 40 10 25 -21 58 -3 128 69 66 68 84 109 56 126 -7 5 -2 16 12 31 19
20 29 23 57 18 31 -6 38 -2 94 52 79 78 99 110 87 141 -6 17 -5 31 7 48 14 21
21 24 57 19 42 -6 42 -5 113 73 80 89 88 104 69 130 -12 16 -10 21 12 45 22
23 32 27 63 22 34 -6 39 -3 81 45 24 27 49 50 55 51 6 0 68 -44 137 -98z
m1699 -239 c32 -30 52 -90 43 -126 -4 -13 -30 -47 -58 -75 -58 -57 -557 -472
-566 -472 -10 0 -206 220 -206 230 0 15 652 478 677 482 36 6 79 -9 110 -39z
m-61 -709 c32 -29 44 -86 29 -141 -11 -40 -29 -63 -107 -141 -52 -51 -99 -92
-104 -90 -10 3 -169 200 -169 208 1 3 60 47 133 98 118 84 136 93 166 88 18
-3 42 -13 52 -22z m-386 -559 c47 -28 201 -182 239 -239 20 -30 26 -51 26 -94
0 -108 -67 -188 -165 -200 l-46 -5 -113 111 c-75 74 -128 119 -160 133 -35 15
-51 29 -62 55 -31 75 -4 181 58 226 75 53 149 57 223 13z m-257 -390 c21 -10
85 -64 152 -133 141 -143 164 -196 124 -290 -27 -65 -77 -108 -143 -123 -57
-13 -90 -1 -111 40 -10 20 -79 96 -153 168 -74 73 -137 139 -140 147 -9 23 13
99 38 132 50 66 153 92 233 59z m-354 -287 c30 -9 69 -39 150 -118 146 -142
177 -198 155 -284 -29 -117 -158 -186 -266 -141 -43 18 -224 192 -264 254 -33
51 -39 119 -15 174 19 43 75 96 122 112 49 18 66 18 118 3z m-385 -163 c24
-12 29 -22 34 -68 8 -79 27 -109 145 -229 114 -116 117 -124 71 -182 -50 -63
-162 -86 -237 -47 -52 27 -248 228 -267 273 -38 94 9 213 100 254 40 18 119
17 154 -1z"/>
</g>
</svg>
