<?xml version="1.0" standalone="no"?>
<!DOCTYPE svg PUBLIC "-//W3C//DTD SVG 20010904//EN"
 "http://www.w3.org/TR/2001/REC-SVG-20010904/DTD/svg10.dtd">
<svg version="1.0" xmlns="http://www.w3.org/2000/svg"
 width="512.000000pt" height="512.000000pt" viewBox="0 0 512.000000 512.000000"
 preserveAspectRatio="xMidYMid meet">

<g transform="translate(0.000000,512.000000) scale(0.100000,-0.100000)"
fill="#000000" stroke="none">
<path d="M245 4306 c-16 -7 -41 -26 -55 -40 -24 -26 -25 -35 -28 -160 -3 -129
-3 -134 21 -161 31 -36 82 -39 109 -6 15 19 18 41 18 117 0 52 3 94 8 94 4 0
95 -33 202 -74 l195 -74 3 -316 2 -316 -93 0 c-85 0 -100 3 -155 31 -98 48
-146 122 -159 239 -7 75 -28 103 -73 103 -47 0 -80 -40 -80 -96 0 -149 93
-301 230 -376 l55 -31 -198 0 c-197 0 -198 0 -222 -25 -14 -13 -25 -36 -25
-50 0 -14 11 -37 25 -50 24 -25 25 -25 230 -25 l205 0 0 -810 0 -810 -205 0
c-205 0 -206 0 -230 -25 -14 -13 -25 -36 -25 -50 0 -14 11 -37 25 -50 l24 -25
228 0 228 0 28 -35 c15 -19 51 -47 80 -63 l52 -27 275 0 275 0 51 27 c28 15
65 43 82 62 l31 36 188 0 188 0 42 -83 c104 -203 280 -345 509 -409 78 -22 85
-22 989 -26 661 -2 926 0 970 8 86 17 158 56 216 117 70 74 103 148 107 246 5
96 -9 155 -53 229 -39 63 -41 68 -21 68 7 0 41 18 74 41 113 75 174 191 174
329 0 80 -26 166 -62 213 l-19 24 67 6 c123 11 220 64 294 162 54 71 73 133
72 235 0 64 -6 99 -23 143 -42 107 -164 213 -269 233 -18 4 -31 9 -30 13 2 3
19 37 38 76 33 66 35 75 35 170 0 93 -2 105 -33 167 -41 84 -128 167 -209 199
-55 22 -74 24 -330 27 l-271 3 -7 37 c-22 125 -143 280 -263 341 -113 57 -148
61 -573 61 -376 0 -387 -1 -413 -21 -33 -26 -36 -79 -5 -108 21 -19 39 -20
428 -23 l406 -3 65 -31 c117 -56 189 -152 210 -281 14 -81 13 -1067 -1 -1116
-17 -61 -56 -79 -156 -74 -145 8 -268 88 -331 216 l-27 56 -5 325 c-3 179 -9
333 -14 343 -20 43 -85 49 -121 12 l-25 -24 0 -218 c0 -236 -8 -290 -55 -382
-52 -103 -174 -206 -288 -243 -18 -6 -97 -13 -175 -17 -142 -6 -144 -6 -168
-34 -31 -36 -31 -71 1 -102 23 -24 31 -25 135 -25 224 0 376 57 512 191 l78
78 27 -52 c38 -76 154 -187 233 -225 36 -17 82 -33 103 -37 20 -4 37 -9 37
-12 0 -3 -16 -24 -35 -47 -19 -23 -47 -69 -62 -102 -25 -52 -28 -70 -28 -160
0 -97 2 -105 36 -172 l36 -70 -36 -6 c-60 -10 -138 -52 -194 -105 -130 -123
-162 -315 -77 -469 l28 -52 -441 0 c-494 0 -514 2 -647 68 -55 27 -96 58 -156
117 -119 119 -177 241 -190 407 -8 95 -28 128 -78 128 -22 0 -40 -8 -55 -24
-21 -22 -23 -32 -20 -105 l4 -81 -147 0 -147 0 -3 194 c-3 174 -5 196 -22 215
-26 29 -86 29 -112 0 -17 -19 -20 -43 -24 -243 -3 -121 -9 -229 -14 -238 -21
-45 -42 -48 -307 -48 l-251 0 -34 34 -34 34 0 862 0 862 34 34 34 34 246 0
c268 0 291 -4 314 -55 9 -19 12 -160 12 -526 l0 -501 29 -29 c36 -35 61 -37
98 -5 l28 24 3 486 3 486 243 0 c241 0 243 0 264 23 12 13 22 35 22 49 0 32
-36 78 -61 78 -24 0 -25 27 -3 101 48 163 174 314 324 387 84 41 203 72 275
72 51 0 90 39 81 83 -11 57 -39 70 -131 64 -268 -20 -511 -179 -634 -417 -38
-73 -73 -177 -86 -252 l-6 -38 -164 0 -164 0 -46 46 -46 45 31 35 c43 50 86
140 99 209 6 34 11 183 11 352 0 315 -3 333 -52 367 -51 36 -84 23 -254 -95
-87 -61 -180 -127 -206 -146 l-47 -34 -14 33 c-27 63 -63 83 -297 172 -124 47
-239 88 -255 91 -17 3 -43 -1 -60 -9z m1033 -491 c-4 -260 -10 -287 -85 -362
-62 -62 -103 -77 -220 -81 l-103 -4 0 234 0 234 203 142 202 142 3 -38 c2 -20
2 -140 0 -267z m3268 -470 c107 -32 168 -115 169 -230 0 -59 -4 -78 -28 -117
-15 -26 -43 -59 -62 -74 -62 -47 -108 -54 -362 -54 l-233 0 0 245 0 245 233 0
c176 0 245 -4 283 -15z m299 -660 c170 -105 159 -341 -20 -430 -37 -19 -66
-20 -442 -23 -222 -2 -403 -1 -403 2 0 3 10 25 23 48 20 40 22 58 25 241 l3
198 383 -3 383 -3 48 -30z m-396 -620 c100 -35 161 -122 161 -227 0 -71 -16
-113 -65 -166 -65 -73 -89 -77 -420 -77 l-290 0 -53 29 c-193 107 -164 382 48
447 14 4 149 8 301 8 219 1 285 -2 318 -14z m-143 -647 c41 -23 90 -72 111
-111 8 -17 18 -58 21 -92 8 -105 -49 -200 -145 -240 -32 -13 -92 -15 -399 -13
l-362 3 -43 30 c-72 51 -103 104 -107 186 -4 60 -1 77 23 124 14 30 42 67 61
81 68 52 81 54 459 51 309 -2 354 -4 381 -19z"/>
<path d="M2104 2346 c-51 -22 -60 -81 -19 -121 21 -21 33 -25 89 -25 78 0 111
13 126 51 15 35 -3 77 -40 96 -33 17 -117 16 -156 -1z"/>
<path d="M2593 1940 c-40 -16 -56 -77 -29 -112 15 -21 58 -38 94 -38 44 0 126
-44 160 -86 37 -44 62 -118 62 -179 0 -75 81 -114 131 -64 19 19 21 30 17 103
-9 180 -128 325 -303 370 -66 18 -99 19 -132 6z"/>
</g>
</svg>
