<?xml version="1.0" standalone="no"?>
<!DOCTYPE svg PUBLIC "-//W3C//DTD SVG 20010904//EN"
 "http://www.w3.org/TR/2001/REC-SVG-20010904/DTD/svg10.dtd">
<svg version="1.0" xmlns="http://www.w3.org/2000/svg"
 width="512.000000pt" height="512.000000pt" viewBox="0 0 512.000000 512.000000"
 preserveAspectRatio="xMidYMid meet">

<g transform="translate(0.000000,512.000000) scale(0.100000,-0.100000)"
fill="#000000" stroke="none">
<path d="M3217 5109 c-114 -27 -231 -119 -280 -219 -14 -30 -175 -489 -358
-1020 -182 -531 -335 -972 -340 -980 -4 -8 -9 -10 -9 -4 0 6 -92 421 -205 923
-127 566 -213 932 -228 964 -38 82 -107 151 -194 194 -67 33 -85 38 -168 41
-70 3 -106 0 -146 -13 -116 -37 -209 -120 -262 -232 -44 -95 -47 -177 -13
-357 14 -77 24 -141 23 -143 -2 -2 -24 4 -48 12 -199 70 -426 -26 -519 -220
-59 -123 -59 -122 81 -1000 l123 -770 6 -450 c6 -412 8 -459 28 -552 29 -132
62 -225 124 -343 60 -117 125 -205 243 -330 63 -67 94 -108 103 -137 7 -22 12
-97 12 -169 1 -194 17 -239 100 -281 l44 -23 886 0 886 0 44 23 c77 38 90 74
90 248 0 215 4 225 149 368 138 135 169 176 288 372 201 329 419 579 888 1018
353 330 405 383 433 436 24 45 27 61 27 150 0 90 -3 105 -28 153 -15 29 -45
70 -67 92 -130 130 -394 159 -581 65 -27 -14 -176 -104 -329 -200 -154 -95
-280 -172 -280 -171 0 2 100 284 221 627 122 343 230 653 240 689 59 205 -35
410 -231 504 -61 29 -72 31 -183 31 -64 0 -117 3 -117 6 0 3 14 45 32 95 27
76 31 104 32 190 1 96 0 103 -36 175 -92 186 -289 283 -481 238z m209 -187
c91 -47 139 -126 138 -227 -1 -65 -26 -143 -367 -1135 -202 -586 -367 -1073
-367 -1082 0 -9 12 -30 26 -47 33 -39 83 -43 117 -9 16 16 108 273 301 838
154 448 287 831 297 850 67 133 258 172 382 77 43 -32 86 -114 93 -174 7 -60
17 -31 -350 -1067 -157 -444 -286 -817 -286 -828 0 -26 53 -78 80 -78 11 0 34
7 50 15 23 12 34 32 67 125 l38 111 390 242 c214 133 412 249 440 259 97 34
241 16 313 -39 66 -50 88 -123 61 -201 -7 -21 -100 -115 -282 -285 -579 -541
-843 -839 -1037 -1167 -96 -162 -145 -226 -270 -347 -164 -160 -190 -221 -190
-453 l0 -130 -850 0 -850 0 0 103 c-1 234 -30 312 -175 462 -140 145 -227 281
-281 441 -53 158 -55 189 -63 674 l-7 455 -122 767 c-67 422 -122 785 -122
806 0 121 99 231 223 248 99 14 221 -54 260 -143 10 -21 76 -351 147 -733 122
-655 131 -696 155 -717 45 -39 114 -22 135 32 6 17 -43 298 -176 1007 -101
540 -184 1003 -183 1028 0 123 96 229 221 246 115 16 240 -66 272 -178 9 -29
106 -456 216 -948 110 -492 206 -909 214 -927 8 -17 32 -44 52 -60 32 -24 47
-28 100 -28 67 0 98 15 137 67 10 14 174 476 363 1027 190 551 356 1019 369
1039 67 100 214 139 321 84z"/>
</g>
</svg>
